<svg version="1.1" id="Layer_1" xmlns="http://www.w3.org/2000/svg" viewBox="0 0 72 72">
<style type="text/css">
.st0{fill:#6c6;stroke:#339933;stroke-width:3;stroke-miterlimit:10;}
.st1{fill:#6c6;}
.st2{fill:#393;}
.st3{fill:none;stroke:#6c6;stroke-width:2;stroke-linecap:round;stroke-linejoin:round;}
.st4{fill:none;stroke:#393;stroke-width:2;stroke-linecap:round;stroke-linejoin:round;}
</style>
<path class="st0" d="M58.5,67.5h-45c-4.9,0-9-4-9-9v-45c0-4.9,4.1-9,9-9h45c5,0,9,4.1,9,9v45C67.5,63.5,63.5,67.5,58.5,67.5z"/>

<path class="st1" d="M63,9c-2.5,0-4.5,8-4.5,18c0,5-4,9-9,9s-9-4-9-9C40.5,17,50.6,9,63,9z"/>
<path class="st1" d="M44.5,41l14,14c0,5-4,9-9,9l-14-14L44.5,41z"/>
<path class="st2" d="M49.5,36l-5,5l-9-9l5-5C40.5,32,44.5,36,49.5,36z"/>

<rect x="29.1" y="34.6" transform="matrix(0.7071 -0.7071 0.7071 0.7071 -18.5937 37.1109)" class="st1" width="12.7" height="12.7"/>
<path class="st1" d="M35.5,32l-9,9l-4-4c5,0,9-4,9-9L35.5,32z"/>
<path class="st2" d="M35.5,50l-13,13c-5,0-9-4-9-9l13-13L35.5,50z"/>
<path class="st2" d="M31.5,28c0,5-4,9-9,9s-9-4-9-9c0-10-2-18-4.5-18C21.4,10,31.5,18,31.5,28z"/>

<polyline class="st3" points="49.5,36 44.5,41 35.5,50 22.5,63 			"/>
<polyline class="st3" points="40.5,27 35.5,32 26.5,41 13.5,54 			"/>
<path class="st3" d="M13.5,54c0,5,4,9,9,9"/>
<path class="st4" d="M58.5,27c0,5-4,9-9,9"/>
<path class="st4" d="M40.5,27c0,5,4,9,9,9"/>
<path class="st4" d="M40.5,27C40.5,17,50.6,9,63,9"/>
<path class="st4" d="M58.5,27c0-10,2-18,4.5-18"/>
<polyline class="st4" points="22.5,37 26.5,41 35.5,50 49.5,64 			"/>
<polyline class="st4" points="31.5,28 35.5,32 44.5,41 58.5,55 			"/>
<path class="st4" d="M58.5,55c0,5-4,9-9,9"/>
<path class="st3" d="M13.5,28c0,5,4,9,9,9"/>
<path class="st3" d="M31.5,28c0,5-4,9-9,9"/>
<path class="st3" d="M31.5,28c0-10-10.1-18-22.5-18"/>
<path class="st3" d="M13.5,28c0-10-2-18-4.5-18"/>
</svg>